<svg width="47.5" height="47.5" xmlns="http://www.w3.org/2000/svg">
 <defs>
  <clipPath id="clipPath18">
   <path id="path20" d="m0,38l38,0l0,-38l-38,0l0,38z"/>
  </clipPath>
 </defs>
 <g>
  <title>background</title>
  <rect fill="none" id="canvas_background" height="402" width="582" y="-1" x="-1"/>
 </g>
 <g>
  <title>Layer 1</title>
  <g transform="matrix(1.25,0,0,-1.25,0,47.5) " id="g16" clip-path="url(#clipPath18)">
   <g id="g22">
    <path fill="#98c4f9" fill-rule="nonzero" id="path24" d="m30.2129,19.4307c2.079,1.322 4.403,3.87 4.403,8.673c0,0.553 -0.447,1 -1,1c-0.552,0 -1,-0.447 -1,-1c0,-3.827 -1.742,-5.863 -3.34,-6.929c-1.583,1.303 -4.899,1.289 -8.068,1.289c-4.361,0 -7.896,-1.65 -7.896,-5.076c0,-3.426 3.535,-4.388 7.896,-4.388c2.143,0 4.356,0.644 6.056,1.702c1.099,-3.606 4.093,-10.287 5.351,-10.287c1.557,0 -2.383,12.683 -2.383,14.665c0,0.13 -0.007,0.245 -0.019,0.351"/>
   </g>
   <g id="g26">
    <path fill="#98c4f9" fill-rule="nonzero" id="path28" d="m14.4395,4.415c-1.558,0 -2.947,10.221 -2.947,12.202c0,1.984 1.262,3.59 2.821,3.59c1.556,0 2.818,-1.606 2.818,-3.59c0,-1.981 -1.135,-12.202 -2.692,-12.202"/>
   </g>
   <path fill="#1068db" fill-rule="nonzero" id="path32" d="m24.591801,17.9512c0,-4.982 -2.608,-9.023 -7.592,-9.023c-4.984,0 -10.011,4.06 -10.456,9.023c-0.544,6.049 2.911,8.049 7.896,8.049c4.983,0 10.152,-3.064 10.152,-8.049"/>
   <g id="g34">
    <path fill="#0b4592" fill-rule="nonzero" id="path36" d="m17.8237,3.2871c0,-1.868 -1.516,-2.256 -3.384,-2.256c-1.869,0 -3.384,0.388 -3.384,2.256c0,1.868 1.515,3.384 3.384,3.384c1.868,0 3.384,-1.516 3.384,-3.384"/>
   </g>
   <g id="g38">
    <path fill="#0b4592" fill-rule="nonzero" id="path40" d="m36,3.2871c0,-1.868 -1.516,-2.256 -3.385,-2.256c-1.868,0 -3.384,0.388 -3.384,2.256c0,1.868 1.516,3.384 3.384,3.384c1.869,0 3.385,-1.516 3.385,-3.384"/>
   </g>
   <g id="g42">
    <path fill="#1068db" fill-rule="nonzero" id="path44" d="m37,28.104c0,-1.869 -1.516,-3.384 -3.384,-3.384c-1.868,0 -3.385,1.515 -3.385,3.384c0,1.868 1.517,3.384 3.385,3.384c1.868,0 3.384,-1.516 3.384,-3.384"/>
   </g>
   <g id="g46">
    <path fill="#98c4f9" fill-rule="nonzero" id="path48" d="m15.5674,27.896c0,-1.869 -2.778,-3.384 -6.204,-3.384c-3.426,0 -7.332,4.512 -7.332,5.64c0,1.128 3.906,1.128 7.332,1.128c3.426,0 6.204,-1.515 6.204,-3.384"/>
   </g>
   <g id="g50">
    <path fill="#0b4592" fill-rule="nonzero" id="path52" d="m17.836901,34.4697c-0.044,1.161 -0.581,2.451 -4.525,2.451c-2.804,0 -6.768,-3.266 -6.768,-4.513c0,-1.246 2.272,-2.255 5.076,-2.255c0.321,0 0.651,0.031 0.983,0.083c-0.283,-1.199 -0.419,-2.572 -0.419,-4.032c0,-4.672 1.397,-6.204 4.512,-6.204c3.115,0 4.512,1.532 4.512,6.204c0,4.057 -1.056,7.443 -3.371,8.266"/>
   </g>
   <g id="g54">
    <path fill="#292f33" fill-rule="nonzero" id="path56" d="m3.1592,30.872101c0,-0.623 -0.505,-1.128 -1.128,-1.128c-0.622,0 -1.128,0.505 -1.128,1.128c0,0.623 0.506,1.128 1.128,1.128c0.623,0 1.128,-0.505 1.128,-1.128"/>
   </g>
  </g>
 </g>
</svg>