<?xml version="1.0" standalone="no"?>
<!DOCTYPE svg PUBLIC "-//W3C//DTD SVG 20010904//EN"
 "http://www.w3.org/TR/2001/REC-SVG-20010904/DTD/svg10.dtd">
<svg version="1.0" xmlns="http://www.w3.org/2000/svg"
 width="700.000000pt" height="700.000000pt" viewBox="0 0 700.000000 700.000000"
 preserveAspectRatio="xMidYMid meet">
<metadata>
Created by potrace 1.11, written by Peter Selinger 2001-2013
</metadata>
<g transform="translate(0.000000,700.000000) scale(0.100000,-0.100000)"
fill="#000000" stroke="none">
<path d="M2295 6784 c-33 -7 -69 -15 -80 -18 -51 -11 -180 -63 -277 -111 -192
-95 -377 -227 -531 -377 -139 -137 -200 -234 -199 -314 1 -54 41 -133 89 -175
l34 -29 -58 -1 c-153 -2 -426 -16 -476 -24 -12 -2 -44 -6 -72 -9 -54 -7 -100
-15 -126 -22 -12 -3 -18 4 -23 30 -17 87 -109 160 -203 158 -148 -2 -246 -150
-189 -285 28 -69 111 -127 182 -127 15 0 34 -22 72 -84 179 -293 548 -624 857
-770 59 -28 184 -75 216 -81 9 -2 33 -8 52 -13 20 -6 38 -7 41 -4 3 3 6 1 6
-5 0 -5 -17 -23 -37 -39 -178 -141 -317 -401 -357 -667 -27 -179 -25 -446 5
-627 85 -512 463 -1011 982 -1295 37 -20 67 -38 67 -40 0 -37 133 -599 154
-655 4 -11 -12 -24 -58 -48 -108 -56 -208 -158 -266 -272 -52 -102 -80 -309
-51 -382 6 -16 8 -28 5 -28 -3 0 9 -27 27 -61 58 -107 160 -169 339 -204 56
-11 402 -14 456 -4 74 14 76 15 124 28 144 41 234 129 270 261 12 45 15 173 6
219 -44 207 -163 365 -343 455 l-50 26 19 72 c25 92 22 81 53 228 14 69 28
133 31 142 5 16 18 17 117 15 95 -2 262 11 332 27 341 76 610 259 797 542 37
54 81 129 99 166 20 40 40 68 49 68 63 0 339 100 503 183 76 38 139 68 141 66
1 -2 22 -62 46 -134 37 -113 143 -402 169 -460 21 -47 42 -96 79 -185 101
-241 238 -521 362 -739 l19 -34 -42 -28 c-190 -127 -300 -372 -266 -593 24
-148 104 -238 261 -290 99 -34 162 -41 358 -41 246 0 356 22 466 93 104 67
152 168 152 315 0 177 -57 315 -182 441 -97 98 -234 166 -356 180 -33 3 -35 6
-42 47 -3 24 -9 62 -13 84 -8 52 -64 342 -72 375 -3 14 -7 32 -9 40 -12 58
-121 525 -154 660 -22 91 -42 174 -44 185 -2 11 -12 49 -21 85 -9 36 -19 74
-21 85 -2 11 -20 88 -39 170 -65 273 -96 439 -102 535 l-5 95 59 37 c146 93
326 275 444 448 62 90 153 275 194 395 19 55 38 100 42 101 34 2 91 22 162 56
63 30 101 57 156 111 79 80 116 137 153 236 119 329 -65 697 -403 804 -102 32
-272 31 -370 -2 -445 -149 -580 -699 -253 -1031 31 -32 82 -73 112 -91 31 -19
56 -39 56 -46 0 -42 -91 -232 -162 -338 -71 -106 -198 -244 -269 -293 -13 -9
-26 -19 -29 -22 -3 -3 -19 -16 -36 -28 -32 -22 -32 -22 -57 -2 -50 40 -195
107 -272 126 -225 58 -426 81 -750 88 l-121 3 -92 90 c-50 49 -128 116 -172
149 -54 39 -79 63 -75 74 29 99 23 698 -9 860 -3 14 -8 45 -11 70 -33 252
-127 521 -242 692 -75 113 -195 217 -299 263 -36 15 -41 22 -42 52 -5 119 -76
232 -186 297 -59 34 -173 71 -281 91 -123 22 -439 28 -520 9z"/>
</g>
</svg>
