<svg id="a4c4b74b-95bb-4ec5-bbda-0b0decdfe153" data-name="Layer 1" xmlns="http://www.w3.org/2000/svg" width="944" height="600.51428" viewBox="0 0 944 600.51428"><title>logic</title><rect x="76" y="354.94585" width="186" height="174" fill="#3f3d56"/><rect x="230" y="586.94585" width="420" height="2" fill="#3f3d56"/><path d="M466,739.18871H128v-295H466Zm-336-2H464v-291H130Z" transform="translate(-128 -149.74286)" fill="#3f3d56"/><path d="M937,605.68871c-74.43945,0-135-60.56054-135-135s60.56055-135,135-135,135,60.56055,135,135S1011.43945,605.68871,937,605.68871Zm0-268c-73.33691,0-133,59.66309-133,133s59.66309,133,133,133,133-59.66308,133-133S1010.33691,337.68871,937,337.68871Z" transform="translate(-128 -149.74286)" fill="#3f3d56"/><circle cx="805" cy="320.94585" r="65" fill="#3f3d56"/><polygon points="413.29 477.837 419.808 514.575 439.955 505.687 439.955 472.504 413.29 477.837" fill="#ffb8b8"/><path d="M570.3253,646.54158s-13.03607,14.22116-26.07213,7.11058l-1.77764,61.625s-30.81252,34.3678-1.1851,34.96035S565.58491,737.794,565.58491,737.794v-7.70313l3.55529-6.518,2.96274,1.1851s8.29568-10.07332,7.70313-14.81371-1.1851-11.25842-1.1851-11.25842l-7.11058-31.40506Z" transform="translate(-128 -149.74286)" fill="#2f2e41"/><polygon points="638.459 371.178 663.938 392.51 650.902 407.916 617.72 389.547 638.459 371.178" fill="#ffb8b8"/><path d="M771.19917,555.28914l15.40625-19.55409,24.29448,18.369,29.03487,15.40625s32.59015,11.851,24.887,23.10939-25.47958,7.70312-25.47958,7.70312l-4.14784-2.96274-6.518-1.77764,1.77765,3.55529-14.22116-.59255-9.48078-11.25842-7.70312-10.07332-12.44352-11.851Z" transform="translate(-128 -149.74286)" fill="#2f2e41"/><path d="M490.92382,284.49457l-6.518,49.18151-27.25722,77.62383s-29.03487,40.88583-8.29567,42.07093,21.33173-37.92309,21.33173-37.92309L505.73753,350.86l9.48077-63.99521Z" transform="translate(-128 -149.74286)" fill="#ffb8b8"/><path d="M621.877,299.90083l4.14783,56.29209,34.36781,64.58776S684.09457,442.11242,670.466,449.223s-26.07213-29.03487-26.07213-29.03487L603.508,362.711l-6.518-59.84738Z" transform="translate(-128 -149.74286)" fill="#ffb8b8"/><circle cx="455.36136" cy="48.23966" r="30.21996" fill="#ffb8b8"/><path d="M559.06688,205.68565s-5.33294,31.99761-27.84977,37.33054,39.70073,23.10939,57.47718,6.518c0,0-11.25842-10.66587-1.77764-24.29448S559.06688,205.68565,559.06688,205.68565Z" transform="translate(-128 -149.74286)" fill="#ffb8b8"/><path d="M616.54406,262.57029l-30.53261-16.49088s-17.79488,12.22867-50.2195-4.60177c0,0-40.72029,3.3162-40.12774,8.64913s-18.369,35.5529-11.851,41.47838,10.66587-5.33293,17.1839,5.92549,9.48078,8.29567,9.48078,8.29567-2.3702,39.70074,2.37019,41.47838,81.17912-9.48077,81.17912-9.48077,10.07332,1.77765,5.33293-2.96274-5.33293-5.33293-2.37019-8.88822,7.11058-2.96275,2.96274-5.92549a5.38346,5.38346,0,0,1-1.77765-7.11058s19.5541-8.29567,27.25723-7.70312S622.46954,264.34793,616.54406,262.57029Z" transform="translate(-128 -149.74286)" fill="#575a89"/><path d="M514.62576,345.527l-.59255,22.51683s-20.14664,274.94241,7.11058,273.16477,28.44231-11.851,30.22-13.03607,23.70193,11.25842,26.66467-1.77764,4.74039-177.76449,4.74039-177.76449S650.91186,605.0632,693.57534,586.10166s96.58537-53.9219,84.14186-67.55051-69.32815-49.18151-69.32815-49.18151-1.1851-10.66587-21.92429-20.73919l-67.5505-69.32815s1.77764-2.37019-2.3702-5.33293-4.14784,2.37019-5.33293-5.33294.59255-4.74038-2.96274-8.29567-2.96275-.59255-3.55529-4.14784.59254-2.96274-.59255-4.14784-5.92549-6.518-5.92549-6.518l-5.92548-15.40626S525.29162,333.67608,514.62576,345.527Z" transform="translate(-128 -149.74286)" fill="#2f2e41"/><polygon points="384.256 208.228 468.397 186.303 472.545 195.784 383.663 218.301 384.256 208.228" fill="#575a89"/><polygon points="394.329 212.968 388.996 240.818 396.107 240.818 401.439 211.783 394.329 212.968" fill="#575a89"/><path d="M534.17985,359.74821a38.85331,38.85331,0,0,0,1.1851,12.44351c1.77764,7.11058,4.14783,17.1839,4.14783,17.1839s11.25842-5.92548,9.48078-11.25841-7.11058-20.14665-7.11058-20.14665Z" transform="translate(-128 -149.74286)" fill="#575a89"/><path d="M579.95508,196.7243c1.78836-2.61193,1.00446-6.24126,2.28438-9.13646,2.00988-4.54637,7.93679-5.47928,12.89861-5.77836a38.01821,38.01821,0,0,1,9.879.26573,9.485,9.485,0,0,1,6.73163,5.13387c.697,1.487.62365-3.12092.29744-9.0417a28.57311,28.57311,0,0,0-21.28779-26.08549q-.10434-.02721-.20681-.05347c-5.99512-1.5368-12.18667-2.71086-18.349-2.13778s-12.35154,3.07731-16.30406,7.83975c-1.80648,2.17664-3.10922,4.76344-5.11524,6.75769-3.52455,3.50388-8.65243,4.68574-13.37407,6.23677-5.33994,1.75414-10.54927,4.21172-14.69306,8.00921s-7.14337,9.06614-7.36424,14.68247c-.25765,6.55137,3.74753,13.41586,10.43395,14.87067a7.54431,7.54431,0,0,1,3.18769,1.4682c6.2939,5.12881-1.1493,10.15792-1.23419,15.75814-.07084,4.673,5.05641,7.84387,9.7182,8.17475a18.80959,18.80959,0,0,0,19.089-14.42494c.79643-3.81708.34851-7.76817-.01545-11.65043-.41663-4.444,9.379-14.64712,2.89-7.15176a10.97165,10.97165,0,0,0-2.533,5.01622c-1.19715,6.0844,4.31306,8.2742,7.73724,11.74459a14.53234,14.53234,0,0,1,3.15456,15.03929,16.75424,16.75424,0,0,0,3.55641-21.07745c-1.08749-1.75951-2.50617-3.30168-3.53437-5.09647-1.60441-2.8006-1.9199-8.81527,2.75394-8.53711C573.89181,197.74877,577.29286,200.6125,579.95508,196.7243Z" transform="translate(-128 -149.74286)" fill="#2f2e41"/><rect x="719.85801" y="301.15663" width="36.46865" height="36.46865" transform="translate(1408.99452 77.20261) rotate(150)" fill="#ff6584"/><rect x="254.85801" y="318.15663" width="36.46865" height="36.46865" transform="translate(549.7927 341.42504) rotate(150)" fill="#3f3d56"/><rect x="656.85801" y="646.15663" width="36.46865" height="36.46865" transform="translate(1463.93492 752.48137) rotate(150)" fill="#d0cde1"/><rect x="152" y="424.94585" width="34" height="34" fill="#0c4da2"/><circle cx="805" cy="320.94585" r="16" fill="#0c4da2"/></svg>