<svg id="f59a6a5b-df09-4f09-b2b0-d83868ed3390" data-name="Layer 1" xmlns="http://www.w3.org/2000/svg" width="1074.5" height="818" viewBox="0 0 1074.5 818"><title>ideation</title><polygon points="787 394.71 771.121 466.13 758.231 524.07 747.957 570.28 735.075 628.22 692.98 817.51 171.363 576.48 133.021 558.76 84.488 536.33 46.133 518.61 0 497.29 26.153 459.24 47.902 427.6 75.415 387.57 97.156 355.95 341.818 0 600.999 229.8 647.153 270.72 683.955 303.35 730.115 344.27 787 394.71" fill="#f2f2f2"/><polygon points="591.611 484.662 618.556 531.331 645.5 578 591.611 578 537.723 578 564.667 531.331 591.611 484.662" fill="#0c4da2"/><rect x="325.5" y="393" width="113" height="113" fill="#0c4da2"/><circle cx="519.5" cy="248.5" r="72.5" fill="#0c4da2"/><path d="M647.50027,410.5558a12,12,0,1,1,12,12A12.01343,12.01343,0,0,1,647.50027,410.5558Zm2,0a10,10,0,1,0,10-10A10.01145,10.01145,0,0,0,649.50027,410.5558Z" transform="translate(-62.75 -41)" fill="#3f3d56"/><path d="M544.18558,619.29312l-17.66389-18.93783,18.93783-17.66388,17.66389,18.93783Zm-14.84837-18.83983,14.94637,16.02431,16.02431-14.94636-14.94637-16.02431Z" transform="translate(-62.75 -41)" fill="#3f3d56"/><path d="M398.30413,349.887l-14.3763-15.41314L399.341,320.09754l14.3763,15.41314ZM386.21932,334.5536l12.16457,13.04189,13.04189-12.16456L399.26121,322.389Z" transform="translate(-62.75 -41)" fill="#3f3d56"/><rect x="450.5" y="816" width="624" height="2" fill="#3f3d56"/><path d="M600.25,371a100,100,0,1,1,100-100A100.11332,100.11332,0,0,1,600.25,371Zm0-198a98,98,0,1,0,98,98A98.11071,98.11071,0,0,0,600.25,173Z" transform="translate(-62.75 -41)" fill="#3f3d56"/><rect x="496.84919" y="375.11887" width="59.64683" height="2.00004" transform="translate(-103.19117 646.93842) rotate(-64.33579)" fill="#3f3d56"/><rect x="588.14395" y="441.09904" width="2.00018" height="129.38298" transform="translate(-198.84126 742.18649) rotate(-61.57807)" fill="#3f3d56"/><path d="M533.25,548h-146V402h146Zm-144-2h142V404h-142Z" transform="translate(-62.75 -41)" fill="#3f3d56"/><path d="M749.75977,620H598.74121L674.25,489.21436Zm-147.55469-2H746.29492L674.25,493.21387Z" transform="translate(-62.75 -41)" fill="#3f3d56"/><circle cx="877.5" cy="337" r="25" fill="#a0616a"/><path d="M953.25,391s3,30,8,35-35-3-35-3,6-25,2-29S953.25,391,953.25,391Z" transform="translate(-62.75 -41)" fill="#a0616a"/><path d="M970.75,441.5s12,34,15,55,3,30,3,30,13,40,9,59c0,0,15,45,2,45s-17-37-17-37l-20-95Z" transform="translate(-62.75 -41)" fill="#a0616a"/><path d="M976.75,457.5s-3-37-16-40c-6.20624-1.43221-16.287-3.54816-25.12841-5.36859-15.40206-3.17127-31.289,4.13612-38.29034,18.21665A25.5267,25.5267,0,0,0,894.75,438.5c-2,16-12,16-3,37s7,43,7,43l6,53s-25,70-23,117l-23,115s5,12,19,6c0,0,35-59,32-102l36-80s25,76,32,83l18,108s17,5,25,0c0,0,3-104-14-121,0,0-17-72-13-91s5-48-25-74c0,0,4-11-9-17l10-32Z" transform="translate(-62.75 -41)" fill="#2f2e41"/><path d="M914.03,414.884q-.405-.0585-.82687-.09689c-8.85439-.79935-16.47791,6.27045-16.87265,15.15207L894.75,465.5l-6,39-13,84s-25,30-8,32,20-33,20-33l22-66,9-61s10.49746-10.49746,6.12847-34.76513A13.15252,13.15252,0,0,0,914.03,414.884Z" transform="translate(-62.75 -41)" fill="#a0616a"/><path d="M856.75,799.5l-7,36s-17,8-6,18,26-2,26-2l4-12-1,18h3l3-18s6-11,2-20v-12Z" transform="translate(-62.75 -41)" fill="#2f2e41"/><path d="M993.25,803l-4,33s-17,8-6,18,26-2,26-2l4-12-1,18h3l3-18s6-11,2-20V808Z" transform="translate(-62.75 -41)" fill="#2f2e41"/><path d="M953.29135,339.35862h-.00021a21.63,21.63,0,0,0-4.176.41525,18.30126,18.30126,0,0,0-7.97214-1.83742h-.72371c-13.95089,0-25.26009,12.624-25.26009,28.19637v.00005h4.67447l.755-5.74624,1.10673,5.74624h3.89428a55.10921,55.10921,0,0,0-1.80878,14.1264v28.6993h7.06755l4.09183-10.63336-1.023,10.63336h45.4281l3.71986-9.66667-.93,9.66667H987.25V386.42446C987.25,360.43076,972.0461,339.35862,953.29135,339.35862Z" transform="translate(-62.75 -41)" fill="#2f2e41"/><rect x="1029.36732" y="481.54033" width="1.8747" height="335.24432" fill="#3f3d56"/><ellipse cx="1030.66625" cy="704.63011" rx="36.55673" ry="83.42433" fill="#3f3d56"/><ellipse cx="1030.66625" cy="514.34765" rx="36.55673" ry="83.42433" fill="#3f3d56"/><path d="M1094.31424,487.19007l-1.796-.53824c.11351-.379,11.13472-38.14721-6.962-62.46069-10.22116-13.73166-27.76035-20.69452-52.13059-20.69452v-1.8747c24.99911,0,43.04588,7.21916,53.6396,21.457C1105.7222,448.15449,1094.43049,486.80287,1094.31424,487.19007Z" transform="translate(-62.75 -41)" fill="#3f3d56"/><circle cx="970.67572" cy="361.55927" r="23.4338" fill="#f2f2f2"/></svg>